<svg xmlns="http://www.w3.org/2000/svg" width="84mm" height="84mm" viewBox="0 0 84 84"><path d="M83.543 42A41.543 41.543 0 0 1 42 83.543 41.543 41.543 0 0 1 .457 42 41.543 41.543 0 0 1 42 .457 41.543 41.543 0 0 1 83.543 42Z" style="opacity:1;fill:#fff;fill-opacity:.98;stroke:#000;stroke-width:0"/><path d="M41.542 5.435a36.59 36.59 0 0 0-8.893 1.09 34.88 34.88 0 0 0-5.908 2.053c-6.76 3.07-12.323 8.203-15.948 14.246-3.861 6.444-5.498 13.8-5.121 20.733.416 7.61 3.208 14.586 7.253 20.03 4.67 6.28 10.892 10.464 16.98 12.728 12.672 4.719 23.56 1.053 28.967-2.237 4.625-2.82 6.397-5.316 6.28-5.43-.114-.114-2.113 2.142-6.74 4.63-5.412 2.92-15.908 6.02-27.846 1.315-5.738-2.266-11.567-6.338-15.877-12.3-3.734-5.163-6.285-11.756-6.61-18.858-.3-6.465 1.277-13.337 4.89-19.298 3.386-5.59 8.572-10.356 14.844-13.193a32.063 32.063 0 0 1 5.467-1.9c7.935-1.985 16.365-.994 23.293 2.388 9.436 4.592 15.942 13.347 18.4 22.307 1.048 3.835 1.418 7.692.99 11.351-.462 3.946-1.828 7.596-3.937 10.531-1.61 2.244-3.622 4.06-5.834 5.314-2.41 1.37-5.05 2.078-7.556 2.126-4.126.09-7.7-1.596-10.252-3.809l-.024.027c-1.751-1.616-4.077-4.102-6.29-7.529a13.83 13.83 0 0 1-4.552-1.495 14.308 14.308 0 0 1-4.182-3.347c-.513-.744-.93-1.537-1.17-1.907.26.4.824 1.007 1.515 1.597a13.92 13.92 0 0 0 4.168 2.994 14.37 14.37 0 0 0 3.584 1.14 41.28 41.28 0 0 1-3.79-8.167 8.798 8.798 0 0 1-4.377-2.296c-.235-.322-.44-.659-.567-.802.134.15.445.362.788.557 1.375 1.142 2.822 1.626 3.93 1.847a40.32 40.32 0 0 1-.917-3.392c-.58-3.14-.657-5.532-.756-7.236.093 1.594.498 4.186 1.366 7.09a39.58 39.58 0 0 0 1.016 3.326c.5-.14 1.244-.42 1.909-1.109a4.017 4.017 0 0 0 1.074-2.167c.152-.926-.058-1.714-.275-2.168.214.447.53 1.202.514 2.19a4.427 4.427 0 0 1-.873 2.517 4.288 4.288 0 0 1-2.068 1.503 41.116 41.116 0 0 0 4.184 8.179 6.349 6.349 0 0 0 1.946-.692 6.035 6.035 0 0 0 1.746-1.451 6.034 6.034 0 0 0 1.086-2.047 6.092 6.092 0 0 0 .245-2.354c-.07-1.202-.494-2.153-.86-2.69.363.532.932 1.4 1.22 2.637.162.818.166 1.69-.004 2.556a6.715 6.715 0 0 1-.981 2.413 6.741 6.741 0 0 1-3.653 2.715 42.183 42.183 0 0 0 5.69 6.494c1.364-.497 2.619-1.168 3.658-1.99 1.378-1.088 2.817-3.146 3.46-4.945.736-2.056.733-4.9-.006-6.883-1.19-3.19-2.97-5.183-8.209-9.183-1.869-1.428-4.222-3.305-5.23-4.172-3.783-3.258-6.288-6.727-6.983-9.674l-.256-1.087-1.314 2c-2.64 4.016-5.323 10.245-6.232 14.464-.513 2.383-.62 6.429-.227 8.676 1.203 6.89 6.1 12.102 12.689 13.507 1.83.39 3.845.387 5.794.047 2.68 3.109 7.054 5.797 12.48 5.82 2.8.007 5.746-.709 8.456-2.184 2.484-1.352 4.748-3.312 6.562-5.763 2.371-3.208 3.936-7.17 4.483-11.46.507-3.972.167-8.128-.92-12.227-2.541-9.617-9.384-18.978-19.536-23.99-4.902-2.413-10.483-3.706-16.152-3.706Z" style="fill:#000;fill-opacity:.98;stroke-width:1"/></svg>