<svg width="32.822" height="32.822" xmlns="http://www.w3.org/2000/svg"><g data-name="Lager 80" transform="translate(0 .822)" style="fill:#f6f6f6;fill-opacity:1"><path data-name="Path 89" d="M24 22v5a1 1 0 0 1-1 1H5a1 1 0 0 1-1-1V9a1 1 0 0 1 1-1h5a2 2 0 0 0 2-2 2 2 0 0 0-2-2H3a3 3 0 0 0-3 3v22a3 3 0 0 0 3 3h22a3 3 0 0 0 3-3v-7a2 2 0 0 0-2-2 2 2 0 0 0-2 2Z" fill="#161615" style="fill:#f6f6f6;fill-opacity:1"/><rect data-name="Rectangle 40" width="16" height="4" rx="2" transform="translate(16)" fill="#161615" style="fill:#f6f6f6;fill-opacity:1"/><rect data-name="Rectangle 41" width="16" height="4" rx="2" transform="rotate(90 16 16)" fill="#161615" style="fill:#f6f6f6;fill-opacity:1"/><g data-name="Group 37" style="fill:#f6f6f6;fill-opacity:1"><rect data-name="Rectangle 42" width="32.296" height="3.971" rx="1.986" transform="rotate(-45 30.162 2.342)" fill="#161615" style="fill:#f6f6f6;fill-opacity:1"/></g></g></svg>