<svg width="32.822" height="32.822" xmlns="http://www.w3.org/2000/svg"><path style="fill:#f6f6f6;fill-opacity:1" d="m30.016.82-.047.002H18c-1.108 0-2 .892-2 2s.892 2 2 2h7.191L8.582 21.432a1.982 1.982 0 0 0 0 2.808c.778.778 2.03.778 2.809 0L28 7.63v7.193c0 1.108.892 2 2 2s2-.892 2-2V2.846a1.98 1.98 0 0 0-.582-1.444A1.974 1.974 0 0 0 30.016.82zM3 4.822a3 3 0 0 0-3 3v22a3 3 0 0 0 3 3h22a3 3 0 0 0 3-3v-7a2 2 0 0 0-2-2 2 2 0 0 0-2 2v5a1 1 0 0 1-1 1H5a1 1 0 0 1-1-1v-18a1 1 0 0 1 1-1h5a2 2 0 0 0 2-2 2 2 0 0 0-2-2H3z"/></svg>