<svg xmlns="http://www.w3.org/2000/svg" width="73mm" height="87mm" viewBox="0 0 73 87"><path d="M36.02.048c-2.968 0-5.962.355-8.893 1.09a34.88 34.88 0 00-5.908 2.053c-6.76 3.07-12.323 8.203-15.948 14.246C1.41 23.881-.227 31.237.15 38.17c.416 7.61 3.208 14.586 7.253 20.029 4.67 6.28 10.892 10.465 16.98 12.729 12.672 4.719 23.56 1.053 28.968-2.237 4.625-2.819 6.396-5.316 6.28-5.43-.115-.114-2.114 2.142-6.74 4.63-5.413 2.92-15.909 6.02-27.847 1.315-5.738-2.266-11.567-6.338-15.877-12.3-3.734-5.163-6.285-11.756-6.61-18.858-.3-6.465 1.277-13.337 4.89-19.298 3.386-5.59 8.572-10.356 14.844-13.193a32.063 32.063 0 015.467-1.9c7.935-1.985 16.365-.994 23.293 2.388 9.436 4.592 15.942 13.347 18.4 22.307 1.048 3.835 1.418 7.692.99 11.351-.462 3.946-1.828 7.596-3.937 10.531-1.61 2.244-3.622 4.059-5.834 5.314-2.41 1.369-5.049 2.078-7.556 2.126-4.126.09-7.7-1.596-10.252-3.809l-.024.027c-1.751-1.616-4.077-4.102-6.289-7.529a13.83 13.83 0 01-4.553-1.495 14.308 14.308 0 01-4.182-3.347c-.513-.744-.929-1.537-1.169-1.907.259.399.823 1.007 1.514 1.597a13.92 13.92 0 004.169 2.994 14.37 14.37 0 003.583 1.14 41.28 41.28 0 01-3.789-8.167 8.798 8.798 0 01-4.378-2.296c-.235-.322-.44-.659-.567-.802.134.15.445.362.788.557 1.375 1.142 2.822 1.626 3.93 1.847a40.32 40.32 0 01-.917-3.392c-.58-3.14-.657-5.532-.756-7.236.093 1.594.498 4.186 1.366 7.09.294 1.14.635 2.249 1.016 3.326.5-.141 1.244-.421 1.909-1.109a4.017 4.017 0 001.074-2.167c.152-.926-.058-1.714-.275-2.168.214.447.531 1.202.515 2.19a4.427 4.427 0 01-.874 2.517 4.288 4.288 0 01-2.068 1.503 41.116 41.116 0 004.184 8.179 6.349 6.349 0 001.946-.692 6.035 6.035 0 001.746-1.451 6.034 6.034 0 001.086-2.047 6.092 6.092 0 00.245-2.354c-.07-1.202-.494-2.153-.86-2.69.363.532.932 1.4 1.22 2.637.162.818.166 1.69-.004 2.556a6.715 6.715 0 01-.981 2.413 6.741 6.741 0 01-3.652 2.715 42.183 42.183 0 005.69 6.494c1.363-.497 2.618-1.168 3.657-1.99 1.378-1.088 2.817-3.146 3.46-4.945.736-2.056.733-4.901-.006-6.883-1.19-3.191-2.97-5.183-8.209-9.183-1.869-1.428-4.222-3.305-5.23-4.172-3.783-3.258-6.288-6.727-6.983-9.674l-.256-1.087-1.314 2c-2.64 4.016-5.323 10.245-6.232 14.464-.513 2.383-.619 6.429-.227 8.676 1.203 6.89 6.1 12.102 12.689 13.507 1.83.39 3.845.387 5.794.047 2.681 3.109 7.054 5.797 12.48 5.82 2.8.007 5.746-.709 8.456-2.184 2.484-1.352 4.748-3.312 6.562-5.763 2.371-3.208 3.936-7.17 4.483-11.46.507-3.972.167-8.128-.92-12.227-2.541-9.617-9.384-18.978-19.536-23.989C47.271 1.341 41.69.048 36.021.048zM67.642 66.12c-.714.03-1.454.4-2.192 1.04l-2.397 2.078c-.345.299-.367.502-.056.853l5.024 5.67c.302.341.508.363.863.056l.489-.424c.364-.316.35-.522.057-.854l-1.849-2.086 1.457-1.263c1.505-1.304 1.851-2.712.641-4.077-.634-.716-1.322-1.024-2.037-.993zm-61.213.175c-.133.01-.262.099-.416.276l-4.96 5.724c-.3.344-.292.55.066.853l3.358 2.848c.367.312.572.27.862-.066l.075-.086c.19-.22.388-.468-.057-.845l-2.442-2.005 4.521-5.216c.266-.307.33-.518-.066-.854l-.494-.419c-.174-.147-.313-.219-.447-.21zm60.783 1.286c.46.005.804.314 1.135.688.563.635.996 1.333-.289 2.446l-1.17 1.014-2.192-2.474 1.179-1.022c.55-.476.978-.656 1.337-.652zm-53.804 3.956c-.177-.011-.313.098-.466.347l-3.957 6.444c-.238.388-.197.59.206.831l.556.334c.414.249.608.174.84-.203l3.956-6.444c.212-.345.242-.563-.205-.831l-.556-.334c-.147-.089-.268-.138-.374-.144zm44.515 1.062c-.163.009-.3.082-.412.141l-.99.524c-.224.119-.55.291-.46.859l1.262 7.969c.022.174.034.196.064.252.162.3.444.151.601.068l.405-.215c.202-.107.55-.29.467-.819l-.23-1.466 3.113-1.648.96.865c.345.318.544.498 1.083.213l.607-.322c.158-.083.438-.232.276-.532-.03-.055-.042-.077-.176-.192l-6.005-5.459c-.213-.194-.402-.248-.565-.238zm-41.096 1.307c-.117.009-.228.069-.288.242 0 0-.02.06-.029.243l-.484 7.876c-.039.546.3.66.553.744l.797.266c.254.085.592.198.925-.303l2.862-4.247c.402-.584.601-.89.918-1.423l.012.004a23.082 23.082 0 00-.17 1.913l-.306 4.915c-.039.546.3.659.54.74l.87.29c.253.085.592.198.896-.26l4.445-6.552c.106-.15.126-.21.126-.21.118-.347-.208-.456-.377-.512l-.254-.085c-.241-.08-.58-.194-.904.283l-2.887 4.279c-.377.552-.621.91-.91 1.399l-.011-.004c.05-.342.058-.366.127-1.514l.349-5.274c.026-.51-.195-.65-.545-.767l-.797-.267c-.254-.085-.592-.197-.916.28l-2.401 3.562-.706 1.082c-.325.517-.552.866-.642 1.05l-.011-.005c.115-.653.184-1.8.236-2.622l.267-4.169c.031-.562-.319-.68-.548-.756l-.411-.137c-.085-.028-.208-.07-.326-.061zm40.863.556c.2.237.212.259.44.467l2.759 2.558-2.439 1.291-.466-2.785c-.096-.578-.178-1.078-.305-1.526zm-4.862.799c-.099-.01-.21.02-.295.043l-.602.166c-.258.07-.639.175-.841.727l-.727 2.031c-.26.726-.402 1.117-.488 1.612-.29-.326-.634-.611-.975-.884l-1.94-1.588c-.394-.323-.692-.347-1.134-.226l-.81.223c-.172.047-.443.12-.365.4.024.085.078.136.18.213l4.474 3.654.783 2.794c.123.437.299.546.753.421l.59-.161c.43-.118.555-.283.43-.733l-.784-2.794 1.937-5.41a.496.496 0 00.039-.286c-.04-.14-.126-.192-.225-.202zM41.46 77.79a1.49 1.49 0 00-.176.008l-.646.064c-.457.045-.595.199-.548.663l.762 7.501c.046.452.2.589.67.542l.646-.064c.482-.048.592-.224.548-.663l-.762-7.502c-.036-.35-.124-.541-.494-.549zm-10.396.037c-.339.01-.466.16-.494.567l-.516 7.484c-.031.453.098.613.569.645l5.188.35c.483.032.621-.123.652-.563l.012-.176c.042-.604-.25-.624-.67-.652l-1.973-.107-1.858-.1.177-2.58 3.344.226c.395.027.617-.047.652-.55.032-.465-.125-.602-.57-.632l-3.344-.226.16-2.327.623.042 2.986.24c.445.03.737.05.78-.555l.006-.1c.028-.402-.047-.61-.569-.645l-4.997-.337a1.63 1.63 0 00-.158-.004zm39.16 2.618c-.127 0-.17.039-.17.17v2.109c0 .127.04.169.17.169h.095c.134 0 .17-.046.17-.17V80.9h.003c.039.159.198.55.282.758l.41 1.006c.063.151.147.152.267.152.12 0 .205 0 .269-.152l.451-1.108c.035-.084.226-.564.25-.656h.004v1.824c0 .112.025.169.17.169h.095c.134 0 .169-.046.169-.17v-2.109c0-.113-.024-.17-.169-.17h-.297c-.088 0-.176.008-.236.153l-.465 1.143a6.37 6.37 0 00-.233.627h-.004c-.032-.127-.176-.476-.25-.663l-.452-1.115c-.06-.144-.173-.144-.236-.144zm-2.764.02c-.127 0-.17.04-.17.17v.029c0 .17.086.169.184.169l.71-.01v1.9c0 .128.038.17.169.17h.18c.134 0 .17-.046.17-.17v-1.9l.705.01c.098 0 .183 0 .183-.17v-.028c0-.113-.025-.17-.17-.17z" fill="#eee"/></svg>