<?xml version="1.0" encoding="UTF-8" standalone="no"?>
<svg
   xmlns:dc="http://purl.org/dc/elements/1.1/"
   xmlns:cc="http://creativecommons.org/ns#"
   xmlns:rdf="http://www.w3.org/1999/02/22-rdf-syntax-ns#"
   xmlns:svg="http://www.w3.org/2000/svg"
   xmlns="http://www.w3.org/2000/svg"
   xmlns:sodipodi="http://sodipodi.sourceforge.net/DTD/sodipodi-0.dtd"
   xmlns:inkscape="http://www.inkscape.org/namespaces/inkscape"
   inkscape:version="1.0 (4035a4f, 2020-05-01)"
   sodipodi:docname="cpp.svg"
   id="svg837"
   version="1.1"
   viewBox="0 0 24 24"
   role="img">
  <metadata
     id="metadata843">
    <rdf:RDF>
      <cc:Work
         rdf:about="">
        <dc:format>image/svg+xml</dc:format>
        <dc:type
           rdf:resource="http://purl.org/dc/dcmitype/StillImage" />
      </cc:Work>
    </rdf:RDF>
  </metadata>
  <defs
     id="defs841" />
  <sodipodi:namedview
     inkscape:current-layer="svg837"
     inkscape:window-maximized="1"
     inkscape:window-y="25"
     inkscape:window-x="0"
     inkscape:cy="12"
     inkscape:cx="12"
     inkscape:zoom="23.5"
     showgrid="false"
     id="namedview839"
     inkscape:window-height="786"
     inkscape:window-width="1440"
     inkscape:pageshadow="2"
     inkscape:pageopacity="0"
     guidetolerance="10"
     gridtolerance="10"
     objecttolerance="10"
     borderopacity="1"
     bordercolor="#666666"
     pagecolor="#ffffff" />
  <title
     id="title833">C++ icon</title>
  <path
     style="fill:#3ebeff;fill-opacity:1"
     id="path835"
     d="M22.393 6c-.167-.29-.398-.543-.652-.69L12.925.22c-.508-.293-1.339-.293-1.847 0L2.26 5.31c-.508.293-.923 1.013-.923 1.6v10.18c0 .294.104.62.271.91.167.29.398.543.652.689l8.816 5.091c.508.293 1.339.293 1.847 0l8.816-5.091c.254-.146.485-.399.652-.689s.271-.616.271-.91V6.91c.002-.294-.102-.62-.269-.91zM12 19.109c-3.92 0-7.109-3.189-7.109-7.109S8.08 4.891 12 4.891a7.133 7.133 0 0 1 6.156 3.552l-3.076 1.781A3.567 3.567 0 0 0 12 8.445c-1.96 0-3.554 1.595-3.554 3.555S10.04 15.555 12 15.555a3.57 3.57 0 0 0 3.08-1.778l3.077 1.78A7.135 7.135 0 0 1 12 19.109zm7.109-6.714h-.79v.79h-.79v-.79h-.79v-.79h.79v-.79h.79v.79h.79v.79zm2.962 0h-.79v.79h-.79v-.79h-.789v-.79h.789v-.79h.79v.79h.79v.79z" />
</svg>
