<?xml version="1.0" encoding="UTF-8" standalone="no"?>
<svg
   xmlns:dc="http://purl.org/dc/elements/1.1/"
   xmlns:cc="http://creativecommons.org/ns#"
   xmlns:rdf="http://www.w3.org/1999/02/22-rdf-syntax-ns#"
   xmlns:svg="http://www.w3.org/2000/svg"
   xmlns="http://www.w3.org/2000/svg"
   xmlns:sodipodi="http://sodipodi.sourceforge.net/DTD/sodipodi-0.dtd"
   xmlns:inkscape="http://www.inkscape.org/namespaces/inkscape"
   inkscape:version="1.0 (4035a4f, 2020-05-01)"
   sodipodi:docname="gradle.svg"
   id="svg843"
   version="1.1"
   viewBox="0 0 24 24"
   role="img">
  <metadata
     id="metadata849">
    <rdf:RDF>
      <cc:Work
         rdf:about="">
        <dc:format>image/svg+xml</dc:format>
        <dc:type
           rdf:resource="http://purl.org/dc/dcmitype/StillImage" />
      </cc:Work>
    </rdf:RDF>
  </metadata>
  <defs
     id="defs847" />
  <sodipodi:namedview
     inkscape:current-layer="svg843"
     inkscape:window-maximized="0"
     inkscape:window-y="25"
     inkscape:window-x="0"
     inkscape:cy="12"
     inkscape:cx="12"
     inkscape:zoom="23.291667"
     showgrid="false"
     id="namedview845"
     inkscape:window-height="486"
     inkscape:window-width="732"
     inkscape:pageshadow="2"
     inkscape:pageopacity="0"
     guidetolerance="10"
     gridtolerance="10"
     objecttolerance="10"
     borderopacity="1"
     bordercolor="#666666"
     pagecolor="#ffffff" />
  <title
     id="title839">Gradle icon</title>
  <path
     style="fill:#3ebeff;fill-opacity:1"
     id="path841"
     d="M22.695 4.297a3.807 3.807 0 0 0-5.29-.09.368.368 0 0 0 0 .533l.46.47a.363.363 0 0 0 .474.032 2.182 2.182 0 0 1 2.86 3.291c-3.023 3.02-7.056-5.447-16.211-1.083a1.24 1.24 0 0 0-.534 1.745l1.571 2.713a1.238 1.238 0 0 0 1.681.461l.037-.02-.029.02.688-.384a16.083 16.083 0 0 0 2.193-1.635.384.384 0 0 1 .499-.016.357.357 0 0 1 .016.534 16.435 16.435 0 0 1-2.316 1.741H8.77l-.696.39a1.958 1.958 0 0 1-.963.25 1.987 1.987 0 0 1-1.726-.989L3.9 9.696C1.06 11.72-.686 15.603.26 20.522a.363.363 0 0 0 .354.296h1.675a.363.363 0 0 0 .37-.331 2.478 2.478 0 0 1 4.915 0 .36.36 0 0 0 .357.317h1.638a.363.363 0 0 0 .357-.317 2.478 2.478 0 0 1 4.914 0 .363.363 0 0 0 .358.317h1.627a.363.363 0 0 0 .363-.357c.037-2.294.656-4.93 2.42-6.25 6.108-4.57 4.502-8.486 3.088-9.9zm-6.229 6.901l-1.165-.584a.73.73 0 1 1 1.165.587z" />
</svg>
