<?xml version="1.0" encoding="UTF-8" standalone="no"?>
<svg
   xmlns:dc="http://purl.org/dc/elements/1.1/"
   xmlns:cc="http://creativecommons.org/ns#"
   xmlns:rdf="http://www.w3.org/1999/02/22-rdf-syntax-ns#"
   xmlns:svg="http://www.w3.org/2000/svg"
   xmlns="http://www.w3.org/2000/svg"
   xmlns:sodipodi="http://sodipodi.sourceforge.net/DTD/sodipodi-0.dtd"
   xmlns:inkscape="http://www.inkscape.org/namespaces/inkscape"
   inkscape:version="1.0 (4035a4f, 2020-05-01)"
   sodipodi:docname="qt.svg"
   id="svg837"
   version="1.1"
   viewBox="0 0 24 24"
   role="img">
  <metadata
     id="metadata843">
    <rdf:RDF>
      <cc:Work
         rdf:about="">
        <dc:format>image/svg+xml</dc:format>
        <dc:type
           rdf:resource="http://purl.org/dc/dcmitype/StillImage" />
      </cc:Work>
    </rdf:RDF>
  </metadata>
  <defs
     id="defs841" />
  <sodipodi:namedview
     inkscape:current-layer="svg837"
     inkscape:window-maximized="1"
     inkscape:window-y="25"
     inkscape:window-x="0"
     inkscape:cy="12"
     inkscape:cx="12"
     inkscape:zoom="23.5"
     showgrid="false"
     id="namedview839"
     inkscape:window-height="786"
     inkscape:window-width="1440"
     inkscape:pageshadow="2"
     inkscape:pageopacity="0"
     guidetolerance="10"
     gridtolerance="10"
     objecttolerance="10"
     borderopacity="1"
     bordercolor="#666666"
     pagecolor="#ffffff" />
  <title
     id="title833">Qt icon</title>
  <path
     style="fill:#3ebeff;fill-opacity:1"
     id="path835"
     d="M21.693 3.162H3.33L0 6.49v14.348h20.671L24 17.51V3.162zM12.785 18.4l-1.562.728-1.35-2.217c-.196.057-.499.09-.924.09-1.579 0-2.683-.425-3.305-1.276-.622-.85-.932-2.2-.932-4.033 0-1.84.319-3.206.949-4.098.63-.892 1.726-1.341 3.288-1.341 1.562 0 2.658.441 3.28 1.333.63.883.94 2.25.94 4.098 0 1.219-.13 2.2-.384 2.945-.261.752-.679 1.325-1.268 1.718zm4.736-1.587c-.858 0-1.447-.196-1.766-.59-.32-.392-.483-1.136-.483-2.232v-3.534H14.11V9.051h1.162V6.843h1.644V9.05h2.094v1.415h-2.094v3.346c0 .622.05 1.03.14 1.227.09.204.326.303.695.303l1.243-.05.073 1.326c-.67.13-1.186.196-1.546.196zm-8.58-9.08c-.95 0-1.604.311-1.963.94-.352.63-.532 1.629-.532 3.011 0 1.374.172 2.364.515 2.953.344.589 1.006.892 1.98.892.973 0 1.628-.295 1.971-.876.335-.58.507-1.57.507-2.953 0-1.39-.172-2.396-.523-3.026-.352-.63-1.006-.94-1.955-.94Z" />
</svg>
