<?xml version="1.0" encoding="UTF-8" standalone="no"?>
<svg
   xmlns:dc="http://purl.org/dc/elements/1.1/"
   xmlns:cc="http://creativecommons.org/ns#"
   xmlns:rdf="http://www.w3.org/1999/02/22-rdf-syntax-ns#"
   xmlns:svg="http://www.w3.org/2000/svg"
   xmlns="http://www.w3.org/2000/svg"
   xmlns:sodipodi="http://sodipodi.sourceforge.net/DTD/sodipodi-0.dtd"
   xmlns:inkscape="http://www.inkscape.org/namespaces/inkscape"
   inkscape:version="1.0 (4035a4f, 2020-05-01)"
   sodipodi:docname="r.svg"
   id="svg837"
   version="1.1"
   viewBox="0 0 24 24"
   role="img">
  <metadata
     id="metadata843">
    <rdf:RDF>
      <cc:Work
         rdf:about="">
        <dc:format>image/svg+xml</dc:format>
        <dc:type
           rdf:resource="http://purl.org/dc/dcmitype/StillImage" />
      </cc:Work>
    </rdf:RDF>
  </metadata>
  <defs
     id="defs841" />
  <sodipodi:namedview
     inkscape:current-layer="svg837"
     inkscape:window-maximized="1"
     inkscape:window-y="25"
     inkscape:window-x="0"
     inkscape:cy="12"
     inkscape:cx="12"
     inkscape:zoom="23.5"
     showgrid="false"
     id="namedview839"
     inkscape:window-height="786"
     inkscape:window-width="1440"
     inkscape:pageshadow="2"
     inkscape:pageopacity="0"
     guidetolerance="10"
     gridtolerance="10"
     objecttolerance="10"
     borderopacity="1"
     bordercolor="#666666"
     pagecolor="#ffffff" />
  <title
     id="title833">R icon</title>
  <path
     style="fill:#3ebeff;fill-opacity:1"
     id="path835"
     d="M12 18.82c-6.627 0-12-3.598-12-8.037s5.373-8.037 12-8.037 12 3.599 12 8.037-5.373 8.037-12 8.037zm1.837-12.932c-5.038 0-9.121 2.46-9.121 5.495s4.083 5.494 9.12 5.494 8.756-1.682 8.756-5.494-3.718-5.495-8.755-5.495zM18.275 15.194a9.038 9.038 0 0 1 1.149.433 2.221 2.221 0 0 1 .582.416 1.573 1.573 0 0 1 .266.383l2.863 4.826-4.627.002-2.163-4.063a5.229 5.229 0 0 0-.716-.982.753.753 0 0 0-.549-.25h-1.099v5.292l-4.093.001V7.737h8.221s3.744.067 3.744 3.63a3.822 3.822 0 0 1-3.578 3.827zm-1.78-4.526l-2.479-.001v2.298h2.479a1.134 1.134 0 0 0 1.148-1.17 1.07 1.07 0 0 0-1.148-1.127z" />
</svg>
